<?xml version="1.0" standalone="no"?><!DOCTYPE svg PUBLIC "-//W3C//DTD SVG 1.1//EN" "http://www.w3.org/Graphics/SVG/1.1/DTD/svg11.dtd"><svg t="1601225726846" class="icon" viewBox="0 0 1024 1024" version="1.1" xmlns="http://www.w3.org/2000/svg" p-id="5472" xmlns:xlink="http://www.w3.org/1999/xlink" width="16" height="16"><defs><style type="text/css"></style></defs><path d="M516.373 799.14c4.86 0 9.717-0.277 14.718-0.833 47.613-5.691 88.009-39.009 103.002-84.819 1.11-3.469-0.557-7.08-3.748-8.606-3.192-1.526-7.218-0.137-9.021 2.916-0.137 0.277-19.158 30.817-92.73 40.813a233.282 233.282 0 0 1-31.928 2.221c-51.64 0-74.684-19.434-74.822-19.712a6.962 6.962 0 0 0-9.162-0.137c-2.639 2.221-3.331 6.107-1.527 9.163 22.488 36.231 62.745 58.997 105.222 58.997z m0 0z" fill="#7dc5eb" p-id="5473"></path><path d="M912.552 342.575c-0.694 0-1.25 0.137-1.804 0.137C867.576 155.729 702.525 16.356 504.852 16.356c-203.227 0-371.889 147.144-409.37 341.764-36.37 6.524-63.993 38.452-63.993 77.181v154.642c0 43.309 34.704 78.57 77.739 78.57 24.155 0 45.533-11.384 59.83-29.014 34.422 90.923 104.251 164.08 192.813 202.812 0.277-0.417 1.943-3.748 3.888-6.386 1.387-1.805 2.915-3.331 4.304-3.331 1.388 0 2.638 0.556 3.748 1.249-20.545-15.27-94.534-93.7-110.498-203.087-7.08-48.169 29.013-95.368 71.074-103.279 67.465-12.493 134.511-26.791 201.976-39.145 42.896-7.774 72.184-31.37 90.094-70.519 4.164-9.162 10.273-27.624 13.047-54.276 0.694-4.026 4.026-7.08 8.19-7.08 2.778 0 5.138 1.388 6.664 3.47l1.804-1.11c26.514 38.592 79.265 124.102 86.898 214.195 8.745 103.002 3.887 173.518-74.96 245.702-0.138 0.137-0.278 0.137-0.278 0.277-1.11 1.249-1.804 2.776-1.804 4.443 0 2.221 1.249 4.164 2.915 5.273 0.694 0.278 1.25 0.557 1.943 0.834 0.557 0.137 0.972 0.277 1.526 0.277s0.973-0.137 1.527-0.277c1.109-0.556 2.221-1.25 3.33-1.804 79.68-43.866 140.898-117.3 169.217-205.448 11.383 16.936 29.29 29.29 50.114 33.455-33.316 151.864-168.8 246.817-336.489 261.251-9.994-24.988-34.842-42.616-63.856-42.616-37.895 0-68.714 30.125-68.714 67.048 0 37.065 30.818 67.048 68.714 67.048 30.541 0 56.221-19.712 65.105-46.641 194.206-15.826 349.817-131.182 382.298-310.531 28.736-11.94 48.864-40.117 48.864-73.017V421.7c-0.137-43.727-35.953-79.126-79.957-79.126z m-71.628 44.839c-50.668-137.152-181.848-235.155-336.212-235.155-153.808 0-284.435 97.172-335.656 233.489-2.497-3.054-5.552-5.83-8.467-8.468C189.463 211.117 332.442 84.934 504.853 84.934c171.575 0 314.002 125.072 343.985 289.986a72.973 72.973 0 0 0-7.911 12.494z m0 0z" fill="#7dc5eb" p-id="5474"></path><path d="M361.872 842.173c-0.137 0.138-0.137 0.138 0 0z m0 0z" fill="#7dc5eb" p-id="5475"></path></svg>