<?xml version="1.0" standalone="no"?><!DOCTYPE svg PUBLIC "-//W3C//DTD SVG 1.1//EN" "http://www.w3.org/Graphics/SVG/1.1/DTD/svg11.dtd"><svg t="1600866537448" class="icon" viewBox="0 0 1024 1024" version="1.1" xmlns="http://www.w3.org/2000/svg" p-id="3659" xmlns:xlink="http://www.w3.org/1999/xlink" width="16" height="16"><defs><style type="text/css"></style></defs><path d="M512 0a43.52 43.52 0 1 1 0 87.04 425.0112 425.0112 0 1 0 425.0112 424.96A43.52 43.52 0 1 1 1024 512c0 282.7264-229.2736 512-512 512S0 794.7264 0 512 229.2736 0 512 0z m263.5264 217.7024a42.8032 42.8032 0 0 1 60.8256-60.1088l74.9568 74.9568a57.8048 57.8048 0 0 1 0 81.8688l-74.9568 74.9568a42.752 42.752 0 0 1-60.4672-60.416l12.6976-12.7488h-55.1936c-150.0672 0-201.0624 63.8976-201.0624 257.1776a42.7008 42.7008 0 0 1-42.752 42.7008 42.7008 42.7008 0 0 1-42.7008-42.7008c0-239.0016 87.1936-342.6304 286.5152-342.6304h55.1936l-13.056-13.056z" fill="#8a8a8a" p-id="3660"></path></svg>