<?xml version="1.0" standalone="no"?><!DOCTYPE svg PUBLIC "-//W3C//DTD SVG 1.1//EN" "http://www.w3.org/Graphics/SVG/1.1/DTD/svg11.dtd"><svg t="1600861578746" class="icon" viewBox="0 0 1024 1024" version="1.1" xmlns="http://www.w3.org/2000/svg" p-id="11589" xmlns:xlink="http://www.w3.org/1999/xlink" width="16" height="16"><defs><style type="text/css"></style></defs><path d="M 960 511.13 a 32 32 0 0 0 -64 0.12 v 0.75 c 0 212.08 -171.92 384 -384 384 S 128 724.08 128 512 s 171.92 -384 384 -384 c 128.48 0 242.21 63.1 311.92 160 H 768 a 32 32 0 0 0 0 64 h 112 a 32 32 0 0 0 32 -32 V 176 a 32 32 0 0 0 -64 0 v 39.69 C 765.91 122.67 645.81 64 512 64 C 264.58 64 64 264.58 64 512 s 200.58 448 448 448 s 448 -200.58 448 -448 v -0.87 Z" fill="#2c2c2c" p-id="11590"></path><path d="M 720 544 a 32 32 0 0 0 -32 -32 H 512 V 336 a 32 32 0 0 0 -32 -32 a 32 32 0 0 0 -32 32 v 208 a 32 32 0 0 0 32 32 h 208 a 32 32 0 0 0 32 -32 Z" fill="#2c2c2c" p-id="11591"></path></svg>