<?xml version="1.0" standalone="no"?><!DOCTYPE svg PUBLIC "-//W3C//DTD SVG 1.1//EN" "http://www.w3.org/Graphics/SVG/1.1/DTD/svg11.dtd"><svg t="1600864796405" class="icon" viewBox="0 0 1024 1024" version="1.1" xmlns="http://www.w3.org/2000/svg" p-id="4257" xmlns:xlink="http://www.w3.org/1999/xlink" width="16" height="16"><defs><style type="text/css"></style></defs><path d="M512 64.2C264.7 64.2 64.2 264.7 64.2 512S264.7 959.8 512 959.8 959.8 759.3 959.8 512 759.3 64.2 512 64.2z m174.2 621.9c-0.1 0-0.1 0 0 0-17.5 17.5-45.8 17.5-63.3 0L512 575.3 401.2 686.2c-17.5 17.5-45.8 17.5-63.3 0s-17.5-45.8 0-63.3L448.7 512 337.8 401.2c-17.5-17.5-17.5-45.8 0-63.3s45.8-17.5 63.3 0L512 448.7l110.8-110.8c17.5-17.5 45.8-17.5 63.3 0s17.5 45.8 0 63.3L575.3 512l110.8 110.8c17.5 17.5 17.5 45.9 0.1 63.3z" fill="#cdcdcd" p-id="4258"></path></svg>