<?xml version="1.0" standalone="no"?><!DOCTYPE svg PUBLIC "-//W3C//DTD SVG 1.1//EN" "http://www.w3.org/Graphics/SVG/1.1/DTD/svg11.dtd"><svg t="1601297640503" class="icon" viewBox="0 0 1024 1024" version="1.1" xmlns="http://www.w3.org/2000/svg" p-id="4282" xmlns:xlink="http://www.w3.org/1999/xlink" width="16" height="16"><defs><style type="text/css"></style></defs><path d="M855.04 426.496v-0.512c-1.024-2.56-2.048-5.12-3.072-7.168l-58.368-145.92c-11.264-28.16-38.4-46.592-68.608-46.592H302.08c-29.696 0-56.32 17.92-68.096 45.056l-58.88 140.288c-10.24 20.48-15.36 44.032-14.336 69.12 3.584 73.216 65.024 131.072 137.728 131.072h0.512c43.008 0 80.896-19.456 106.496-49.664 25.6 30.72 63.488 49.664 106.496 49.664 42.496 0 80.896-19.456 106.496-49.664 25.6 30.208 63.488 49.664 106.496 49.664h4.096c71.168-2.048 130.048-59.392 134.144-130.56 1.024-19.456-2.048-37.888-8.192-54.784z m-43.008 51.712c-2.56 44.544-39.424 80.896-84.48 81.92h-2.56c-26.112 0-50.176-11.264-67.072-31.232l-17.92-21.504c-11.264-13.312-31.744-13.312-43.008 0l-17.92 21.504c-16.896 19.968-40.96 31.232-67.072 31.232s-50.176-11.264-67.072-31.232l-17.92-21.504c-11.264-13.312-31.744-13.312-43.008 0l-17.92 21.504c-16.896 19.968-40.96 31.232-67.072 31.232h-0.512c-22.016 0-43.52-8.704-59.904-24.064-16.384-15.36-26.112-36.352-27.136-58.368-1.024-15.36 2.048-29.696 9.216-43.52l0.512-1.536 0.512-1.536 58.88-140.288c3.584-8.192 11.776-13.824 20.48-13.824h422.912c9.216 0 17.408 5.632 20.992 14.336l58.368 145.92 0.512 0.512 0.512 0.512c0.512 1.536 1.024 2.56 1.536 3.584l0.512 1.536c4.608 11.264 6.144 23.04 5.632 34.816z" p-id="4283" fill="#2c2c2c"></path><path d="M709.12 401.92h-402.944c-14.336 0-26.112 11.776-26.112 26.112s11.776 26.112 26.112 26.112h402.944c14.336 0 26.112-11.776 26.112-26.112s-11.776-26.112-26.112-26.112zM787.968 631.296c-14.336 0-25.6 11.264-25.6 25.6v134.656c0 10.24-8.192 18.432-18.432 18.432h-472.064c-10.24 0-18.432-8.192-18.432-18.432v-134.656c0-14.336-11.264-25.6-25.6-25.6s-25.6 11.264-25.6 25.6v134.656c0 38.4 31.232 70.144 70.144 70.144h472.064c38.4 0 70.144-31.232 70.144-70.144v-134.656c-1.024-13.824-12.8-25.6-26.624-25.6z" p-id="4284" fill="#2c2c2c"></path></svg>